# xmcd
#
# Track frame offsets:
#	150
#	15889
#	30971
#	45736
#	62091
#	74897
#	84772
#	99614
#	116418
#	130394
#	145651
#	162495
#
# Disc length: 2337 seconds
#
# Revision: 1
# Processed by: cddbd v1.5.2PL0 Copyright (c) Steve Scherf et al.
# Submitted via: audiograbber 1.83.01
#
DISCID=99091f0c
DTITLE=THE CEDAR CREEK BAND - STILL CREAKIN'
DYEAR=2004
DGENRE=Country
TTITLE0=That Little Green Valley
TTITLE1=Whispering Wind
TTITLE2=We All Get Luck Sometime
TTITLE3=Crying Time
TTITLE4=My Heart Skips A Beat
TTITLE5=Ghost Riders In The Sky
TTITLE6=Waiting Till The Coast Is Clear
TTITLE7=Blue As The Bluegrass
TTITLE8=Is It Still Over
TTITLE9=Close Up The Honkytonks
TTITLE10=Pick Me Up On Your Way Down
TTITLE11=Forever And Ever
EXTD=
EXTT0=
EXTT1=
EXTT2=
EXTT3=
EXTT4=
EXTT5=
EXTT6=
EXTT7=
EXTT8=
EXTT9=
EXTT10=
EXTT11=
PLAYORDER=
